<svg id="Layer_1" data-name="Layer 1" xmlns="http://www.w3.org/2000/svg" viewBox="0 0 207.27 25.61"><defs><style>.cls-1{fill:#fff;}</style></defs><title>openredu-org-white</title><path class="cls-1" d="M1627.23,340.27a7.19,7.19,0,0,1,7.24,7.24,7.25,7.25,0,1,1-14.49,0A7.19,7.19,0,0,1,1627.23,340.27Zm0,13.51a6.08,6.08,0,0,0,6-6.26,6,6,0,1,0-12,0A6.08,6.08,0,0,0,1627.23,353.78Z" transform="translate(-1601.84 -334.85)"/><path class="cls-1" d="M1638.14,341.08a0.43,0.43,0,0,1,.48-0.48h0.22a0.43,0.43,0,0,1,.48.48v1.2a7.13,7.13,0,0,1-.08,1.12h0.06a5.24,5.24,0,0,1,5-3.13c3.75,0,6,3,6,7.33s-2.6,7.33-6.21,7.33a5.34,5.34,0,0,1-4.9-3.16h-0.06a6.24,6.24,0,0,1,.11,1.23v6.71a0.43,0.43,0,0,1-.48.48h-0.22a0.43,0.43,0,0,1-.48-0.48V341.08Zm6,12.7c2.74,0,5-2.26,5-6.18s-2-6.18-4.87-6.18c-2.57,0-5,1.82-5,6.21C1639.28,350.73,1641,353.78,1644.15,353.78Z" transform="translate(-1601.84 -334.85)"/><path class="cls-1" d="M1659.93,340.27c3.64,0,5.71,2.63,5.71,6.66a0.46,0.46,0,0,1-.5.48h-10.77c0,4.06,2.74,6.38,6,6.38a6.16,6.16,0,0,0,3.94-1.43,0.39,0.39,0,0,1,.64.08l0.17,0.22a0.43,0.43,0,0,1-.11.62,7.46,7.46,0,0,1-4.64,1.65,7,7,0,0,1-7.22-7.3C1653.13,342.9,1656.35,340.27,1659.93,340.27Zm4.48,6c-0.14-3.41-2.18-5-4.5-5a5.44,5.44,0,0,0-5.45,5h10Z" transform="translate(-1601.84 -334.85)"/><path class="cls-1" d="M1669.3,341.08a0.43,0.43,0,0,1,.48-0.48H1670a0.43,0.43,0,0,1,.48.48v2a5.84,5.84,0,0,1-.11,1.15h0.06a6.45,6.45,0,0,1,5.93-3.94c3.64,0,4.62,2.15,4.62,5.45v8.39a0.43,0.43,0,0,1-.48.48h-0.22a0.43,0.43,0,0,1-.48-0.48v-8c0-2.43-.31-4.73-3.44-4.73a6,6,0,0,0-5.87,6.21v6.49a0.43,0.43,0,0,1-.48.48h-0.22a0.43,0.43,0,0,1-.48-0.48v-13Z" transform="translate(-1601.84 -334.85)"/><path class="cls-1" d="M1746.21,353.3a0.43,0.43,0,0,1,.48-0.48h0.75a0.43,0.43,0,0,1,.48.48v0.81a0.43,0.43,0,0,1-.48.48h-0.75a0.43,0.43,0,0,1-.48-0.48V353.3Z" transform="translate(-1601.84 -334.85)"/><path class="cls-1" d="M1758.57,340.27a7.19,7.19,0,0,1,7.24,7.24,7.25,7.25,0,1,1-14.49,0A7.19,7.19,0,0,1,1758.57,340.27Zm0,13.51a6.08,6.08,0,0,0,6-6.26,6,6,0,1,0-12,0A6.08,6.08,0,0,0,1758.57,353.78Z" transform="translate(-1601.84 -334.85)"/><path class="cls-1" d="M1769.48,341.08a0.43,0.43,0,0,1,.48-0.48h0.22a0.43,0.43,0,0,1,.48.48v2.18a5.85,5.85,0,0,1-.11,1.15h0.06c0.7-2.15,2.35-3.89,4.7-3.89a0.48,0.48,0,0,1,.59.48v0.25a0.52,0.52,0,0,1-.62.48c-3.13,0-4.61,3.72-4.61,6.83v5.57a0.43,0.43,0,0,1-.48.48H1770a0.43,0.43,0,0,1-.48-0.48v-13Z" transform="translate(-1601.84 -334.85)"/><path class="cls-1" d="M1779.44,358.53a7.91,7.91,0,0,0,3.44.78c2.83,0,5.2-1.43,5.2-4.81v-1.62a5.84,5.84,0,0,1,.11-1.15h-0.06a4.93,4.93,0,0,1-4.7,2.85c-3.64,0-6.21-2.83-6.21-7.3,0-4.28,2.35-7,6.13-7s4.75,2.74,4.75,2.74h0.06a1.47,1.47,0,0,1-.08-0.53v-1.4a0.43,0.43,0,0,1,.48-0.48h0.22a0.43,0.43,0,0,1,.48.48V354.5c0,4.28-3.08,6-6.38,6a9.58,9.58,0,0,1-4-.87,0.42,0.42,0,0,1-.22-0.64l0.14-.25A0.4,0.4,0,0,1,1779.44,358.53Zm8.67-11.1c0-4.56-2.18-6-4.75-6-3.13,0-4.89,2.18-4.89,5.85,0,3.94,2.07,6.18,5.06,6.18C1786,353.44,1788.11,351.9,1788.11,347.43Z" transform="translate(-1601.84 -334.85)"/><path class="cls-1" d="M1684.07,342a1.37,1.37,0,0,1,1.54-1.54h1.57a1.37,1.37,0,0,1,1.54,1.54v0.9a7.64,7.64,0,0,1-.06.89h0.06c0.48-1.48,2-3.47,3.83-3.47,1,0,1.31.53,1.31,1.54v1.57a1.37,1.37,0,0,1-1.54,1.54c-2.29,0-3.41,2-3.41,4.31v4.06a1.38,1.38,0,0,1-1.54,1.54h-1.76a1.37,1.37,0,0,1-1.54-1.54V342Z" transform="translate(-1601.84 -334.85)"/><path class="cls-1" d="M1701.95,340.11c4.28,0,6.66,3,6.66,6.88a1.65,1.65,0,0,1-1.62,1.59h-7.58a3.22,3.22,0,0,0,3.36,2.57,6,6,0,0,0,2.63-.67,1.37,1.37,0,0,1,2.07.59l0.39,0.73a1.41,1.41,0,0,1-.53,2.1,10,10,0,0,1-5,1.29,7.47,7.47,0,0,1-7.92-7.55A7.17,7.17,0,0,1,1701.95,340.11Zm1.87,5.71a2,2,0,0,0-2-2.15,2.37,2.37,0,0,0-2.32,2.15h4.31Z" transform="translate(-1601.84 -334.85)"/><path class="cls-1" d="M1716.41,340.11c2.91,0,3.78,1.43,3.78,1.43h0.06s0-.28,0-0.64v-4.5a1.37,1.37,0,0,1,1.54-1.54h1.76a1.37,1.37,0,0,1,1.54,1.54v16.92a1.37,1.37,0,0,1-1.54,1.54h-1.46a1.31,1.31,0,0,1-1.54-1.4v-0.17a1.56,1.56,0,0,1,0-.2h-0.06a4.81,4.81,0,0,1-4.17,2.1c-3.92,0-6.49-3.08-6.49-7.55S1712.58,340.11,1716.41,340.11Zm1.12,11.08c1.45,0,2.82-1.06,2.82-3.55,0-1.73-.92-3.44-2.82-3.44-1.51,0-2.83,1.23-2.83,3.44S1715.85,351.19,1717.53,351.19Z" transform="translate(-1601.84 -334.85)"/><path class="cls-1" d="M1727.77,342a1.37,1.37,0,0,1,1.54-1.54h1.76a1.38,1.38,0,0,1,1.54,1.54v6.91c0,1.34.53,1.9,1.54,1.9,2.07,0,3-1.82,3-4V342a1.37,1.37,0,0,1,1.54-1.54h1.76A1.38,1.38,0,0,1,1742,342v11.33a1.38,1.38,0,0,1-1.54,1.54h-1.57a1.35,1.35,0,0,1-1.51-1.54v-0.25c0-.14,0-0.36,0-0.36h-0.06a5,5,0,0,1-4.5,2.49c-2.85,0-5.12-1.34-5.12-5.4V342Z" transform="translate(-1601.84 -334.85)"/><path class="cls-1" d="M1601.84,346.9v-0.22a0.55,0.55,0,0,1,.36-0.56l11.36-5.09a0.36,0.36,0,0,1,.56.36v0.34a0.55,0.55,0,0,1-.36.56l-10.18,4.47v0.06l10.18,4.48a0.55,0.55,0,0,1,.36.56v0.33a0.36,0.36,0,0,1-.56.36l-11.36-5.09A0.55,0.55,0,0,1,1601.84,346.9Z" transform="translate(-1601.84 -334.85)"/><path class="cls-1" d="M1796.84,351.85a0.55,0.55,0,0,1,.36-0.56l10.18-4.48v-0.06l-10.18-4.47a0.55,0.55,0,0,1-.36-0.56v-0.34a0.36,0.36,0,0,1,.56-0.36l11.36,5.09a0.55,0.55,0,0,1,.36.56v0.22a0.55,0.55,0,0,1-.36.56l-11.36,5.09a0.36,0.36,0,0,1-.56-0.36v-0.33Z" transform="translate(-1601.84 -334.85)"/></svg>