<svg xmlns="http://www.w3.org/2000/svg" xmlns:xlink="http://www.w3.org/1999/xlink" viewBox="0 0 184.93 62.22"><defs><style>.a,.g,.h{fill:none;}.b{fill:#ccc;}.c{fill:#63c082;}.d{fill:#fff;}.e{fill:#faa93a;}.f{fill:#4dadd6;}.g,.h{stroke-miterlimit:10;stroke-width:20px;}.g{stroke:url(#a);}.h{stroke:url(#b);}.i{fill:#eee;}</style><linearGradient id="a" x1="213.77" y1="-1949.53" x2="213.77" y2="-1949.53" gradientTransform="matrix(1, 0, 0, -1, -101.31, -139.96)" gradientUnits="userSpaceOnUse"><stop offset="0" stop-color="#76c5e6"/><stop offset="1" stop-color="#4dadd6"/></linearGradient><linearGradient id="b" x1="191" y1="-1926.76" x2="191" y2="-1926.76" xlink:href="#a"/></defs><title>openredu-logo-horizontal-pb</title><path class="a" d="M105.07,1821.32a6.74,6.74,0,1,0,4.45-4.45A19.38,19.38,0,0,1,105.07,1821.32Z" transform="translate(-64.83 -1772.76)"/><path class="b" d="M111.51,1813.68h-0.14a19.25,19.25,0,0,1-1.86,3.19,6.74,6.74,0,1,1-4.45,4.45,19.25,19.25,0,0,1-3.19,1.85v0.15a9.63,9.63,0,1,0,9.63-9.63h0Z" transform="translate(-64.83 -1772.76)"/><path class="c" d="M109.52,1816.87a19.25,19.25,0,0,0,1.85-3.18,9.63,9.63,0,0,0-9.49,9.48,19.25,19.25,0,0,0,3.19-1.85A6.76,6.76,0,0,1,109.52,1816.87Z" transform="translate(-64.83 -1772.76)"/><path class="d" d="M109.52,1816.87a19.25,19.25,0,0,0,1.85-3.18,9.63,9.63,0,0,0-9.49,9.48,19.25,19.25,0,0,0,3.19-1.85A6.76,6.76,0,0,1,109.52,1816.87Z" transform="translate(-64.83 -1772.76)"/><path class="a" d="M68.72,1819.28a11.55,11.55,0,0,0,21.81,5.35A19.28,19.28,0,0,1,74.89,1809,11.55,11.55,0,0,0,68.72,1819.28Z" transform="translate(-64.83 -1772.76)"/><path class="b" d="M90.53,1824.62A11.55,11.55,0,1,1,74.89,1809a19.38,19.38,0,0,1-.3-3.4c0-.24,0-0.48,0-0.72a15.41,15.41,0,1,0,20,20l-0.74,0A19.38,19.38,0,0,1,90.53,1824.62Z" transform="translate(-64.83 -1772.76)"/><path class="e" d="M80.25,1803.86a15.37,15.37,0,0,0-5.64,1.06c0,0.24,0,.48,0,0.72a19.38,19.38,0,0,0,.3,3.4,11.55,11.55,0,0,1,15.63,15.58,19.38,19.38,0,0,0,3.34.29c0.25,0,.5,0,0.74,0A15.42,15.42,0,0,0,80.25,1803.86Z" transform="translate(-64.83 -1772.76)"/><path class="d" d="M80.25,1803.86a15.37,15.37,0,0,0-5.64,1.06c0,0.24,0,.48,0,0.72a19.38,19.38,0,0,0,.3,3.4,11.55,11.55,0,0,1,15.63,15.58,19.38,19.38,0,0,0,3.34.29c0.25,0,.5,0,0.74,0A15.42,15.42,0,0,0,80.25,1803.86Z" transform="translate(-64.83 -1772.76)"/><path class="a" d="M113.12,1805.32a14.45,14.45,0,1,0-18.94-19A19.26,19.26,0,0,1,113.12,1805.32Z" transform="translate(-64.83 -1772.76)"/><path class="b" d="M126.75,1792A19.27,19.27,0,0,0,88.9,1787a19.29,19.29,0,0,1,5-.65h0.33a14.45,14.45,0,1,1,18.93,19v0.26a19.29,19.29,0,0,1-.68,5.06A19.27,19.27,0,0,0,126.75,1792Z" transform="translate(-64.83 -1772.76)"/><path class="f" d="M113.12,1805.32a14.46,14.46,0,0,1-18.94-19H93.86a19.29,19.29,0,0,0-5,.65,19.28,19.28,0,0,0,23.56,23.68,19.29,19.29,0,0,0,.68-5.06C113.13,1805.49,113.12,1805.41,113.12,1805.32Z" transform="translate(-64.83 -1772.76)"/><path class="d" d="M113.12,1805.32a14.46,14.46,0,0,1-18.94-19H93.86a19.29,19.29,0,0,0-5,.65,19.28,19.28,0,0,0,23.56,23.68,19.29,19.29,0,0,0,.68-5.06C113.13,1805.49,113.12,1805.41,113.12,1805.32Z" transform="translate(-64.83 -1772.76)"/><path class="g" d="M112.46,1809.57" transform="translate(-64.83 -1772.76)"/><path class="h" d="M89.69,1786.8" transform="translate(-64.83 -1772.76)"/><path class="a" d="M80.21,1787.21a4.82,4.82,0,0,0-2.93,8.63,19.36,19.36,0,0,1,6.75-6.76A4.81,4.81,0,0,0,80.21,1787.21Z" transform="translate(-64.83 -1772.76)"/><path class="b" d="M75.4,1792a4.82,4.82,0,0,1,8.63-2.94,19.19,19.19,0,0,1,2.65-1.31A7.71,7.71,0,1,0,76,1798.44a19.19,19.19,0,0,1,1.28-2.6A4.81,4.81,0,0,1,75.4,1792Z" transform="translate(-64.83 -1772.76)"/><path class="d" d="M87.94,1792a7.67,7.67,0,0,0-1.27-4.24,19.19,19.19,0,0,0-2.65,1.31,4.81,4.81,0,0,1-6.75,6.76,19.19,19.19,0,0,0-1.28,2.6A7.71,7.71,0,0,0,87.94,1792Z" transform="translate(-64.83 -1772.76)"/><path class="i" d="M143.31,1816.5a6.67,6.67,0,0,1,6.72,6.72,6.72,6.72,0,1,1-13.44,0A6.67,6.67,0,0,1,143.31,1816.5Zm0,12.53a5.64,5.64,0,0,0,5.58-5.81,5.58,5.58,0,1,0-11.15,0A5.64,5.64,0,0,0,143.31,1829Z" transform="translate(-64.83 -1772.76)"/><path class="i" d="M153.42,1817.26a0.4,0.4,0,0,1,.44-0.44h0.21a0.4,0.4,0,0,1,.44.44v1.12a6.59,6.59,0,0,1-.08,1h0.05a4.86,4.86,0,0,1,4.67-2.91c3.48,0,5.6,2.78,5.6,6.8s-2.41,6.8-5.76,6.8a5,5,0,0,1-4.54-2.93h-0.05a5.79,5.79,0,0,1,.1,1.14v6.23a0.4,0.4,0,0,1-.44.44h-0.21a0.4,0.4,0,0,1-.44-0.44v-17.28ZM159,1829c2.54,0,4.62-2.1,4.62-5.73s-1.87-5.73-4.51-5.73c-2.39,0-4.62,1.69-4.62,5.76C154.49,1826.21,156.1,1829,159,1829Z" transform="translate(-64.83 -1772.76)"/><path class="i" d="M173.63,1816.5c3.37,0,5.29,2.44,5.29,6.17a0.43,0.43,0,0,1-.47.44h-10c0,3.76,2.54,5.92,5.55,5.92a5.71,5.71,0,0,0,3.66-1.32,0.37,0.37,0,0,1,.6.08l0.16,0.21a0.4,0.4,0,0,1-.1.57,6.92,6.92,0,0,1-4.31,1.53,6.52,6.52,0,0,1-6.69-6.77C167.33,1818.94,170.31,1816.5,173.63,1816.5Zm4.15,5.6c-0.13-3.16-2-4.59-4.18-4.59a5,5,0,0,0-5.06,4.59h9.23Z" transform="translate(-64.83 -1772.76)"/><path class="i" d="M182.32,1817.26a0.4,0.4,0,0,1,.44-0.44H183a0.4,0.4,0,0,1,.44.44v1.84a5.43,5.43,0,0,1-.1,1.06h0.05a6,6,0,0,1,5.5-3.66c3.37,0,4.28,2,4.28,5.06v7.78a0.4,0.4,0,0,1-.44.44h-0.21a0.4,0.4,0,0,1-.44-0.44V1822c0-2.26-.29-4.38-3.19-4.38a5.55,5.55,0,0,0-5.45,5.76v6a0.4,0.4,0,0,1-.44.44h-0.21a0.4,0.4,0,0,1-.44-0.44v-12.09Z" transform="translate(-64.83 -1772.76)"/><path class="i" d="M196,1818.1a1.28,1.28,0,0,1,1.43-1.43h1.45a1.28,1.28,0,0,1,1.43,1.43v0.83a7.08,7.08,0,0,1-.05.83h0.05c0.44-1.37,1.87-3.22,3.55-3.22,0.91,0,1.22.49,1.22,1.43v1.45a1.28,1.28,0,0,1-1.43,1.43c-2.13,0-3.16,1.82-3.16,4v3.76a1.28,1.28,0,0,1-1.43,1.43h-1.63a1.28,1.28,0,0,1-1.43-1.43V1818.1Z" transform="translate(-64.83 -1772.76)"/><path class="i" d="M212.59,1816.36c4,0,6.17,2.8,6.17,6.38a1.53,1.53,0,0,1-1.5,1.48h-7a3,3,0,0,0,3.11,2.39,5.55,5.55,0,0,0,2.44-.62,1.27,1.27,0,0,1,1.92.54l0.36,0.67a1.31,1.31,0,0,1-.49,1.95,9.32,9.32,0,0,1-4.59,1.19,6.93,6.93,0,0,1-7.34-7A6.65,6.65,0,0,1,212.59,1816.36Zm1.74,5.29a1.86,1.86,0,0,0-1.84-2,2.19,2.19,0,0,0-2.15,2h4Z" transform="translate(-64.83 -1772.76)"/><path class="i" d="M226,1816.36c2.7,0,3.5,1.32,3.5,1.32h0.05s0-.26,0-0.6v-4.18a1.28,1.28,0,0,1,1.43-1.43h1.63a1.28,1.28,0,0,1,1.43,1.43v15.69a1.28,1.28,0,0,1-1.43,1.43h-1.35a1.22,1.22,0,0,1-1.43-1.3v-0.16a1.44,1.44,0,0,1,0-.18h-0.05a4.46,4.46,0,0,1-3.87,1.95c-3.63,0-6-2.85-6-7S222.45,1816.36,226,1816.36Zm1,10.27c1.35,0,2.62-1,2.62-3.29,0-1.61-.86-3.19-2.62-3.19-1.4,0-2.62,1.14-2.62,3.19S225.49,1826.63,227,1826.63Z" transform="translate(-64.83 -1772.76)"/><path class="i" d="M236.54,1818.1a1.28,1.28,0,0,1,1.43-1.43h1.63a1.28,1.28,0,0,1,1.43,1.43v6.41c0,1.25.49,1.76,1.43,1.76,1.92,0,2.83-1.69,2.83-3.68v-4.49a1.28,1.28,0,0,1,1.43-1.43h1.63a1.28,1.28,0,0,1,1.43,1.43v10.51a1.28,1.28,0,0,1-1.43,1.43h-1.45a1.26,1.26,0,0,1-1.4-1.43v-0.23c0-.13,0-0.34,0-0.34h-0.05a4.63,4.63,0,0,1-4.18,2.31c-2.65,0-4.75-1.25-4.75-5v-7.24Z" transform="translate(-64.83 -1772.76)"/></svg>