<svg xmlns="http://www.w3.org/2000/svg" xmlns:xlink="http://www.w3.org/1999/xlink" viewBox="0 0 227.63 76.58"><defs><style>.a,.h,.i{fill:none;}.b{fill:#63c082;}.c{fill:#aed585;}.d{fill:#faa93a;}.e{fill:#ffca0b;}.f{fill:#4dadd6;}.g{fill:#75c5e6;}.h,.i{stroke-miterlimit:10;stroke-width:20px;}.h{stroke:url(#a);}.i{stroke:url(#b);}.j{fill:#cecccc;}.k{fill:#e6e6e5;}</style><linearGradient id="a" x1="1934.25" y1="-1049.88" x2="1934.25" y2="-1049.88" gradientTransform="matrix(1, 0, 0, -1, -101.31, -139.96)" gradientUnits="userSpaceOnUse"><stop offset="0" stop-color="#76c5e6"/><stop offset="1" stop-color="#4dadd6"/></linearGradient><linearGradient id="b" x1="1906.22" y1="-1021.85" x2="1906.22" y2="-1021.85" xlink:href="#a"/></defs><title>openredu-logo-horizontal</title><path class="a" d="M1823.84,924.38a8.29,8.29,0,1,0,5.48-5.47A23.85,23.85,0,0,1,1823.84,924.38Z" transform="translate(-1774.32 -864.61)"/><path class="b" d="M1831.77,915h-0.17a23.69,23.69,0,0,1-2.29,3.93,8.29,8.29,0,1,1-5.48,5.48,23.69,23.69,0,0,1-3.92,2.28v0.18A11.86,11.86,0,1,0,1831.77,915h0Z" transform="translate(-1774.32 -864.61)"/><path class="b" d="M1829.32,918.91a23.69,23.69,0,0,0,2.28-3.92,11.85,11.85,0,0,0-11.68,11.67,23.69,23.69,0,0,0,3.92-2.28A8.32,8.32,0,0,1,1829.32,918.91Z" transform="translate(-1774.32 -864.61)"/><path class="c" d="M1829.32,918.91a23.69,23.69,0,0,0,2.28-3.92,11.85,11.85,0,0,0-11.68,11.67,23.69,23.69,0,0,0,3.92-2.28A8.32,8.32,0,0,1,1829.32,918.91Z" transform="translate(-1774.32 -864.61)"/><path class="a" d="M1779.1,921.87a14.22,14.22,0,0,0,26.84,6.58,23.73,23.73,0,0,1-19.24-19.17A14.22,14.22,0,0,0,1779.1,921.87Z" transform="translate(-1774.32 -864.61)"/><path class="d" d="M1805.94,928.45a14.22,14.22,0,1,1-19.24-19.17,23.85,23.85,0,0,1-.37-4.18c0-.3,0-0.59,0-0.88A19,19,0,1,0,1811,928.78l-0.92,0A23.86,23.86,0,0,1,1805.94,928.45Z" transform="translate(-1774.32 -864.61)"/><path class="d" d="M1793.3,902.9a18.92,18.92,0,0,0-6.94,1.31c0,0.29,0,.59,0,0.88a23.85,23.85,0,0,0,.37,4.18,14.22,14.22,0,0,1,19.24,19.17,23.86,23.86,0,0,0,4.11.36c0.31,0,.61,0,0.92,0A19,19,0,0,0,1793.3,902.9Z" transform="translate(-1774.32 -864.61)"/><path class="e" d="M1793.3,902.9a18.92,18.92,0,0,0-6.94,1.31c0,0.29,0,.59,0,0.88a23.85,23.85,0,0,0,.37,4.18,14.22,14.22,0,0,1,19.24,19.17,23.86,23.86,0,0,0,4.11.36c0.31,0,.61,0,0.92,0A19,19,0,0,0,1793.3,902.9Z" transform="translate(-1774.32 -864.61)"/><path class="a" d="M1833.75,904.69a17.79,17.79,0,1,0-23.31-23.39A23.71,23.71,0,0,1,1833.75,904.69Z" transform="translate(-1774.32 -864.61)"/><path class="f" d="M1850.53,888.32a23.72,23.72,0,0,0-46.6-6.23,23.74,23.74,0,0,1,6.11-.8h0.4a17.79,17.79,0,1,1,23.31,23.4V905a23.74,23.74,0,0,1-.84,6.23A23.72,23.72,0,0,0,1850.53,888.32Z" transform="translate(-1774.32 -864.61)"/><path class="f" d="M1833.75,904.69a17.79,17.79,0,0,1-23.31-23.39H1810a23.74,23.74,0,0,0-6.11.8,23.73,23.73,0,0,0,29,29.15,23.74,23.74,0,0,0,.84-6.23C1833.76,904.9,1833.76,904.79,1833.75,904.69Z" transform="translate(-1774.32 -864.61)"/><path class="g" d="M1833.75,904.69a17.79,17.79,0,0,1-23.31-23.39H1810a23.74,23.74,0,0,0-6.11.8,23.73,23.73,0,0,0,29,29.15,23.74,23.74,0,0,0,.84-6.23C1833.76,904.9,1833.76,904.79,1833.75,904.69Z" transform="translate(-1774.32 -864.61)"/><path class="h" d="M1832.94,909.92" transform="translate(-1774.32 -864.61)"/><path class="i" d="M1804.91,881.89" transform="translate(-1774.32 -864.61)"/><path class="a" d="M1793.25,882.39a5.93,5.93,0,0,0-3.61,10.63,23.83,23.83,0,0,1,8.3-8.32A5.92,5.92,0,0,0,1793.25,882.39Z" transform="translate(-1774.32 -864.61)"/><path class="j" d="M1787.32,888.32a5.93,5.93,0,0,1,10.62-3.62,23.62,23.62,0,0,1,3.26-1.61,9.48,9.48,0,1,0-13.14,13.13,23.62,23.62,0,0,1,1.58-3.2A5.92,5.92,0,0,1,1787.32,888.32Z" transform="translate(-1774.32 -864.61)"/><path class="k" d="M1802.76,888.3a9.44,9.44,0,0,0-1.56-5.22,23.62,23.62,0,0,0-3.26,1.61,5.93,5.93,0,0,1-8.3,8.32,23.62,23.62,0,0,0-1.58,3.2A9.48,9.48,0,0,0,1802.76,888.3Z" transform="translate(-1774.32 -864.61)"/><path class="f" d="M1870.91,918.45a8.21,8.21,0,0,1,8.27,8.27,8.27,8.27,0,1,1-16.54,0A8.21,8.21,0,0,1,1870.91,918.45Zm0,15.43a6.94,6.94,0,0,0,6.87-7.15,6.87,6.87,0,1,0-13.73,0A6.94,6.94,0,0,0,1870.91,933.88Z" transform="translate(-1774.32 -864.61)"/><path class="f" d="M1883.36,919.38a0.49,0.49,0,0,1,.54-0.54h0.26a0.49,0.49,0,0,1,.54.54v1.37a8.07,8.07,0,0,1-.1,1.28h0.06a6,6,0,0,1,5.75-3.58c4.28,0,6.9,3.42,6.9,8.37s-3,8.37-7.09,8.37a6.1,6.1,0,0,1-5.59-3.61h-0.06a7.14,7.14,0,0,1,.13,1.41v7.67a0.49,0.49,0,0,1-.54.54h-0.26a0.49,0.49,0,0,1-.54-0.54V919.38Zm6.87,14.5c3.13,0,5.68-2.59,5.68-7.06,0-4.31-2.3-7.06-5.56-7.06-2.94,0-5.68,2.08-5.68,7.09C1884.67,930.4,1886.65,933.88,1890.23,933.88Z" transform="translate(-1774.32 -864.61)"/><path class="f" d="M1908.24,918.45c4.15,0,6.52,3,6.52,7.6a0.53,0.53,0,0,1-.58.54h-12.3c0,4.63,3.13,7.28,6.83,7.28a7,7,0,0,0,4.5-1.63,0.45,0.45,0,0,1,.73.1l0.19,0.25a0.49,0.49,0,0,1-.13.7,8.52,8.52,0,0,1-5.3,1.88,8,8,0,0,1-8.24-8.33C1900.47,921.46,1904.15,918.45,1908.24,918.45Zm5.11,6.9c-0.16-3.9-2.49-5.65-5.14-5.65a6.21,6.21,0,0,0-6.23,5.65h11.37Z" transform="translate(-1774.32 -864.61)"/><path class="f" d="M1918.93,919.38a0.49,0.49,0,0,1,.54-0.54h0.26a0.49,0.49,0,0,1,.54.54v2.27a6.7,6.7,0,0,1-.13,1.31h0.06a7.36,7.36,0,0,1,6.77-4.5c4.15,0,5.27,2.46,5.27,6.23v9.58a0.49,0.49,0,0,1-.54.54h-0.25a0.49,0.49,0,0,1-.54-0.54v-9.1c0-2.78-.35-5.4-3.93-5.4a6.84,6.84,0,0,0-6.71,7.09v7.41a0.49,0.49,0,0,1-.54.54h-0.26a0.49,0.49,0,0,1-.54-0.54V919.38Z" transform="translate(-1774.32 -864.61)"/><path class="f" d="M1935.79,920.41a1.57,1.57,0,0,1,1.76-1.76h1.79a1.57,1.57,0,0,1,1.76,1.76v1a8.64,8.64,0,0,1-.06,1h0.06c0.54-1.69,2.3-4,4.38-4,1.12,0,1.5.61,1.5,1.76V922a1.57,1.57,0,0,1-1.76,1.76c-2.62,0-3.9,2.24-3.9,4.92v4.63a1.57,1.57,0,0,1-1.76,1.76h-2a1.57,1.57,0,0,1-1.76-1.76V920.41Z" transform="translate(-1774.32 -864.61)"/><path class="f" d="M1956.19,918.27c4.89,0,7.6,3.45,7.6,7.86a1.89,1.89,0,0,1-1.85,1.82h-8.65a3.67,3.67,0,0,0,3.83,2.94,6.84,6.84,0,0,0,3-.77,1.57,1.57,0,0,1,2.36.67l0.45,0.83a1.61,1.61,0,0,1-.61,2.4,11.48,11.48,0,0,1-5.65,1.47c-5.88,0-9-4.25-9-8.62C1947.63,922,1950.89,918.27,1956.19,918.27Zm2.14,6.52a2.28,2.28,0,0,0-2.27-2.46,2.7,2.7,0,0,0-2.65,2.46h4.92Z" transform="translate(-1774.32 -864.61)"/><path class="f" d="M1972.7,918.27c3.32,0,4.31,1.63,4.31,1.63h0.06s0-.32,0-0.73V914a1.57,1.57,0,0,1,1.76-1.76h2a1.57,1.57,0,0,1,1.76,1.76v19.32a1.57,1.57,0,0,1-1.76,1.76h-1.66a1.5,1.5,0,0,1-1.76-1.6v-0.19a1.77,1.77,0,0,1,0-.22h-0.06a5.49,5.49,0,0,1-4.76,2.39c-4.47,0-7.41-3.51-7.41-8.62S1968.33,918.27,1972.7,918.27Zm1.28,12.65c1.66,0,3.23-1.21,3.23-4.06,0-2-1.05-3.93-3.23-3.93-1.72,0-3.23,1.41-3.23,3.93S1972.06,930.92,1974,930.92Z" transform="translate(-1774.32 -864.61)"/><path class="f" d="M1985.66,920.41a1.57,1.57,0,0,1,1.76-1.76h2a1.57,1.57,0,0,1,1.76,1.76v7.89c0,1.53.61,2.17,1.76,2.17,2.36,0,3.48-2.08,3.48-4.54v-5.52a1.57,1.57,0,0,1,1.76-1.76h2a1.57,1.57,0,0,1,1.76,1.76v12.93a1.57,1.57,0,0,1-1.76,1.76h-1.79a1.55,1.55,0,0,1-1.72-1.76v-0.29c0-.16,0-0.42,0-0.42h-0.06a5.7,5.7,0,0,1-5.14,2.84c-3.26,0-5.84-1.53-5.84-6.16v-8.91Z" transform="translate(-1774.32 -864.61)"/></svg>